<svg xmlns="http://www.w3.org/2000/svg" style="display:none;">
<!-- ============================================
     SPRITE SVG — MapOS V5 Icon System
     Uso: <svg class="svg-icon"><use href="<?= base_url() ?>assets/svg/icons.svg#icon-name"/></svg>
     ============================================ -->

<!-- NAVEGAÇÃO -->
<symbol id="home" viewBox="0 0 24 24" fill="none" stroke="currentColor" stroke-width="2" stroke-linecap="round" stroke-linejoin="round"><path d="M3 9l9-7 9 7v11a2 2 0 01-2 2H5a2 2 0 01-2-2z"/><polyline points="9 22 9 12 15 12 15 22"/></symbol>

<symbol id="dashboard" viewBox="0 0 24 24" fill="none" stroke="currentColor" stroke-width="2" stroke-linecap="round" stroke-linejoin="round"><rect x="3" y="3" width="7" height="7" rx="1"/><rect x="14" y="3" width="7" height="7" rx="1"/><rect x="3" y="14" width="7" height="7" rx="1"/><rect x="14" y="14" width="7" height="7" rx="1"/></symbol>

<symbol id="menu" viewBox="0 0 24 24" fill="none" stroke="currentColor" stroke-width="2" stroke-linecap="round"><line x1="3" y1="6" x2="21" y2="6"/><line x1="3" y1="12" x2="21" y2="12"/><line x1="3" y1="18" x2="21" y2="18"/></symbol>

<symbol id="search" viewBox="0 0 24 24" fill="none" stroke="currentColor" stroke-width="2" stroke-linecap="round" stroke-linejoin="round"><circle cx="11" cy="11" r="8"/><line x1="21" y1="21" x2="16.65" y2="16.65"/></symbol>

<symbol id="chevron-down" viewBox="0 0 24 24" fill="none" stroke="currentColor" stroke-width="2" stroke-linecap="round" stroke-linejoin="round"><polyline points="6 9 12 15 18 9"/></symbol>

<symbol id="chevron-right" viewBox="0 0 24 24" fill="none" stroke="currentColor" stroke-width="2" stroke-linecap="round" stroke-linejoin="round"><polyline points="9 18 15 12 9 6"/></symbol>

<symbol id="chevron-left" viewBox="0 0 24 24" fill="none" stroke="currentColor" stroke-width="2" stroke-linecap="round" stroke-linejoin="round"><polyline points="15 18 9 12 15 6"/></symbol>

<!-- AÇÕES CRUD -->
<symbol id="eye" viewBox="0 0 24 24" fill="none" stroke="currentColor" stroke-width="2" stroke-linecap="round" stroke-linejoin="round"><path d="M1 12s4-8 11-8 11 8 11 8-4 8-11 8-11-8-11-8z"/><circle cx="12" cy="12" r="3"/></symbol>

<symbol id="eye-off" viewBox="0 0 24 24" fill="none" stroke="currentColor" stroke-width="2" stroke-linecap="round" stroke-linejoin="round"><path d="M17.94 17.94A10.07 10.07 0 0112 20c-7 0-11-8-11-8a18.45 18.45 0 015.06-5.94M9.9 4.24A9.12 9.12 0 0112 4c7 0 11 8 11 8a18.5 18.5 0 01-2.16 3.19m-6.72-1.07a3 3 0 11-4.24-4.24"/><line x1="1" y1="1" x2="23" y2="23"/></symbol>

<symbol id="key" viewBox="0 0 24 24" fill="none" stroke="currentColor" stroke-width="2" stroke-linecap="round" stroke-linejoin="round"><path d="M21 2l-2 2m-7.61 7.61a5.5 5.5 0 11-7.78 7.78 5.5 5.5 0 017.78-7.78zm0 0L15.5 7.5m0 0l3 3L22 7l-3-3m-3.5 3.5L19 4"/></symbol>

<symbol id="edit" viewBox="0 0 24 24" fill="none" stroke="currentColor" stroke-width="2" stroke-linecap="round" stroke-linejoin="round"><path d="M11 4H4a2 2 0 00-2 2v14a2 2 0 002 2h14a2 2 0 002-2v-7"/><path d="M18.5 2.5a2.12 2.12 0 013 3L12 15l-4 1 1-4 9.5-9.5z"/></symbol>

<symbol id="trash" viewBox="0 0 24 24" fill="none" stroke="currentColor" stroke-width="2" stroke-linecap="round" stroke-linejoin="round"><polyline points="3 6 5 6 21 6"/><path d="M19 6v14a2 2 0 01-2 2H7a2 2 0 01-2-2V6m3 0V4a2 2 0 012-2h4a2 2 0 012 2v2"/><line x1="10" y1="11" x2="10" y2="17"/><line x1="14" y1="11" x2="14" y2="17"/></symbol>

<symbol id="plus-circle" viewBox="0 0 24 24" fill="none" stroke="currentColor" stroke-width="2" stroke-linecap="round" stroke-linejoin="round"><circle cx="12" cy="12" r="10"/><line x1="12" y1="8" x2="12" y2="16"/><line x1="8" y1="12" x2="16" y2="12"/></symbol>

<symbol id="plus" viewBox="0 0 24 24" fill="none" stroke="currentColor" stroke-width="2" stroke-linecap="round"><line x1="12" y1="5" x2="12" y2="19"/><line x1="5" y1="12" x2="19" y2="12"/></symbol>

<symbol id="refresh" viewBox="0 0 24 24" fill="none" stroke="currentColor" stroke-width="2" stroke-linecap="round" stroke-linejoin="round"><polyline points="23 4 23 10 17 10"/><path d="M20.49 15a9 9 0 11-2.12-9.36L23 10"/></symbol>

<symbol id="printer" viewBox="0 0 24 24" fill="none" stroke="currentColor" stroke-width="2" stroke-linecap="round" stroke-linejoin="round"><polyline points="6 9 6 2 18 2 18 9"/><path d="M6 18H4a2 2 0 01-2-2v-5a2 2 0 012-2h16a2 2 0 012 2v5a2 2 0 01-2 2h-2"/><rect x="6" y="14" width="12" height="8"/></symbol>

<symbol id="download" viewBox="0 0 24 24" fill="none" stroke="currentColor" stroke-width="2" stroke-linecap="round" stroke-linejoin="round"><path d="M21 15v4a2 2 0 01-2 2H5a2 2 0 01-2-2v-4"/><polyline points="7 10 12 15 17 10"/><line x1="12" y1="15" x2="12" y2="3"/></symbol>

<symbol id="x" viewBox="0 0 24 24" fill="none" stroke="currentColor" stroke-width="2" stroke-linecap="round"><line x1="18" y1="6" x2="6" y2="18"/><line x1="6" y1="6" x2="18" y2="18"/></symbol>

<symbol id="check" viewBox="0 0 24 24" fill="none" stroke="currentColor" stroke-width="2" stroke-linecap="round" stroke-linejoin="round"><polyline points="20 6 9 17 4 12"/></symbol>

<symbol id="copy" viewBox="0 0 24 24" fill="none" stroke="currentColor" stroke-width="2" stroke-linecap="round" stroke-linejoin="round"><rect x="9" y="9" width="13" height="13" rx="2" ry="2"/><path d="M5 15H4a2 2 0 01-2-2V4a2 2 0 012-2h9a2 2 0 012 2v1"/></symbol>

<!-- CADASTROS -->
<symbol id="user" viewBox="0 0 24 24" fill="none" stroke="currentColor" stroke-width="2" stroke-linecap="round" stroke-linejoin="round"><path d="M20 21v-2a4 4 0 00-4-4H8a4 4 0 00-4 4v2"/><circle cx="12" cy="7" r="4"/></symbol>

<symbol id="users" viewBox="0 0 24 24" fill="none" stroke="currentColor" stroke-width="2" stroke-linecap="round" stroke-linejoin="round"><path d="M17 21v-2a4 4 0 00-4-4H5a4 4 0 00-4 4v2"/><circle cx="9" cy="7" r="4"/><path d="M23 21v-2a4 4 0 00-3-3.87"/><path d="M16 3.13a4 4 0 010 7.75"/></symbol>

<symbol id="user-check" viewBox="0 0 24 24" fill="none" stroke="currentColor" stroke-width="2" stroke-linecap="round" stroke-linejoin="round"><path d="M16 21v-2a4 4 0 00-4-4H5a4 4 0 00-4 4v2"/><circle cx="8.5" cy="7" r="4"/><polyline points="17 11 19 13 23 9"/></symbol>

<symbol id="user-circle" viewBox="0 0 24 24" fill="none" stroke="currentColor" stroke-width="2" stroke-linecap="round" stroke-linejoin="round"><circle cx="12" cy="12" r="10"/><circle cx="12" cy="10" r="3"/><path d="M6.168 18.849A4 4 0 0112 16a4 4 0 015.832 2.849"/></symbol>

<symbol id="user-plus" viewBox="0 0 24 24" fill="none" stroke="currentColor" stroke-width="2" stroke-linecap="round" stroke-linejoin="round"><path d="M16 21v-2a4 4 0 00-4-4H5a4 4 0 00-4 4v2"/><circle cx="8.5" cy="7" r="4"/><line x1="20" y1="8" x2="20" y2="14"/><line x1="23" y1="11" x2="17" y2="11"/></symbol>

<symbol id="hard-hat" viewBox="0 0 24 24" fill="none" stroke="currentColor" stroke-width="2" stroke-linecap="round" stroke-linejoin="round"><path d="M2 18h20"/><path d="M4 18v-4a8 8 0 0116 0v4"/><path d="M12 2v4"/><path d="M8 6h8"/></symbol>

<symbol id="building" viewBox="0 0 24 24" fill="none" stroke="currentColor" stroke-width="2" stroke-linecap="round" stroke-linejoin="round"><rect x="4" y="2" width="16" height="20" rx="2" ry="2"/><path d="M9 22V12h6v10"/><path d="M8 6h.01"/><path d="M16 6h.01"/><path d="M12 6h.01"/><path d="M8 10h.01"/><path d="M16 10h.01"/><path d="M12 10h.01"/><path d="M8 14h.01"/><path d="M16 14h.01"/></symbol>

<symbol id="building-house" viewBox="0 0 24 24" fill="none" stroke="currentColor" stroke-width="2" stroke-linecap="round" stroke-linejoin="round"><path d="M3 21h18"/><path d="M5 21V7l8-4 8 4v14"/><path d="M9 21v-4h6v4"/><path d="M9 10h.01"/><path d="M15 10h.01"/></symbol>

<!-- PRODUTOS / SERVIÇOS -->
<symbol id="package" viewBox="0 0 24 24" fill="none" stroke="currentColor" stroke-width="2" stroke-linecap="round" stroke-linejoin="round"><line x1="16.5" y1="9.5" x2="7.5" y2="9.5"/><line x1="16.5" y1="13.5" x2="7.5" y2="13.5"/><polyline points="10 2 3 6 3 20 12 22 21 20 21 6 14 2"/><line x1="12" y1="22" x2="12" y2="6"/><line x1="3" y1="6" x2="12" y2="2"/><line x1="21" y1="6" x2="12" y2="2"/></symbol>

<symbol id="basket" viewBox="0 0 24 24" fill="none" stroke="currentColor" stroke-width="2" stroke-linecap="round" stroke-linejoin="round"><path d="M5.5 4L3 10h18l-2.5-6"/><path d="M3 10l1 10h16l1-10"/><line x1="12" y1="2" x2="12" y2="6"/><line x1="9" y1="2" x2="9" y2="4"/><line x1="15" y1="2" x2="15" y2="4"/></symbol>

<symbol id="wrench" viewBox="0 0 24 24" fill="none" stroke="currentColor" stroke-width="2" stroke-linecap="round" stroke-linejoin="round"><path d="M14.7 6.3a1 1 0 000 1.4l1.6 1.6a1 1 0 001.4 0l3.77-3.77a6 6 0 01-7.94 7.94l-6.91 6.91a2.12 2.12 0 01-3-3l6.91-6.91a6 6 0 017.94-7.94l-3.76 3.76z"/></symbol>

<symbol id="cart" viewBox="0 0 24 24" fill="none" stroke="currentColor" stroke-width="2" stroke-linecap="round" stroke-linejoin="round"><circle cx="9" cy="21" r="1"/><circle cx="20" cy="21" r="1"/><path d="M1 1h4l2.68 13.39a2 2 0 002 1.61h9.72a2 2 0 002-1.61L23 6H6"/></symbol>

<!-- OS / DOCUMENTOS -->
<symbol id="file" viewBox="0 0 24 24" fill="none" stroke="currentColor" stroke-width="2" stroke-linecap="round" stroke-linejoin="round"><path d="M14 2H6a2 2 0 00-2 2v16a2 2 0 002 2h12a2 2 0 002-2V8z"/><polyline points="14 2 14 8 20 8"/></symbol>

<symbol id="file-text" viewBox="0 0 24 24" fill="none" stroke="currentColor" stroke-width="2" stroke-linecap="round" stroke-linejoin="round"><path d="M14 2H6a2 2 0 00-2 2v16a2 2 0 002 2h12a2 2 0 002-2V8z"/><polyline points="14 2 14 8 20 8"/><line x1="16" y1="13" x2="8" y2="13"/><line x1="16" y1="17" x2="8" y2="17"/><polyline points="10 9 9 9 8 9"/></symbol>

<symbol id="file-find" viewBox="0 0 24 24" fill="none" stroke="currentColor" stroke-width="2" stroke-linecap="round" stroke-linejoin="round"><path d="M14 2H6a2 2 0 00-2 2v16a2 2 0 002 2h12a2 2 0 002-2V8z"/><polyline points="14 2 14 8 20 8"/><circle cx="11" cy="15" r="3"/><line x1="13.2" y1="17.2" x2="15" y2="19"/></symbol>

<symbol id="receipt" viewBox="0 0 24 24" fill="none" stroke="currentColor" stroke-width="2" stroke-linecap="round" stroke-linejoin="round"><path d="M4 2v20l2-1 2 1 2-1 2 1 2-1 2 1 2-1 2 1V2l-2 1-2-1-2 1-2-1-2 1-2-1-2 1Z"/><path d="M16 8h-6a2 2 0 100 4h4a2 2 0 110 4H8"/><path d="M12 17.5v-11"/></symbol>

<symbol id="columns" viewBox="0 0 24 24" fill="none" stroke="currentColor" stroke-width="2" stroke-linecap="round" stroke-linejoin="round"><path d="M12 3h7a2 2 0 012 2v14a2 2 0 01-2 2h-7m0-18H5a2 2 0 00-2 2v14a2 2 0 002 2h7m0-18v18"/></symbol>

<symbol id="timer" viewBox="0 0 24 24" fill="none" stroke="currentColor" stroke-width="2" stroke-linecap="round" stroke-line-linejoin="round"><circle cx="12" cy="13" r="8"/><path d="M12 9v4l2 2"/><path d="M5 3L2 6"/><path d="M22 6l-3-3"/><line x1="12" y1="1" x2="12" y2="3"/></symbol>

<!-- FINANCEIRO -->
<symbol id="bar-chart" viewBox="0 0 24 24" fill="none" stroke="currentColor" stroke-width="2" stroke-linecap="round" stroke-linejoin="round"><line x1="12" y1="20" x2="12" y2="10"/><line x1="18" y1="20" x2="18" y2="4"/><line x1="6" y1="20" x2="6" y2="16"/></symbol>

<symbol id="bar-chart-alt" viewBox="0 0 24 24" fill="none" stroke="currentColor" stroke-width="2" stroke-linecap="round" stroke-linejoin="round"><rect x="2" y="4" width="5" height="16" rx="1"/><rect x="9.5" y="8" width="5" height="12" rx="1"/><rect x="17" y="2" width="5" height="18" rx="1"/></symbol>

<symbol id="credit-card" viewBox="0 0 24 24" fill="none" stroke="currentColor" stroke-width="2" stroke-linecap="round" stroke-linejoin="round"><rect x="1" y="4" width="22" height="16" rx="2" ry="2"/><line x1="1" y1="10" x2="23" y2="10"/></symbol>

<symbol id="dollar-circle" viewBox="0 0 24 24" fill="none" stroke="currentColor" stroke-width="2" stroke-linecap="round" stroke-linejoin="round"><circle cx="12" cy="12" r="10"/><path d="M12 6v12m-3.5-8.5c0-1.38 1.12-2.5 3.5-2.5s3.5 1.12 3.5 2.5-1.12 2.5-3.5 2.5S8.5 13.12 8.5 14.5s1.12 2.5 3.5 2.5 3.5-1.12 3.5-2.5"/></symbol>

<symbol id="money" viewBox="0 0 24 24" fill="none" stroke="currentColor" stroke-width="2" stroke-linecap="round" stroke-linejoin="round"><line x1="12" y1="1" x2="12" y2="23"/><path d="M17 5H9.5a3.5 3.5 0 000 7h5a3.5 3.5 0 010 7H6"/></symbol>

<symbol id="line-chart-down" viewBox="0 0 24 24" fill="none" stroke="currentColor" stroke-width="2" stroke-linecap="round" stroke-linejoin="round"><polyline points="22 12 18 12 15 21 9 3 6 12 2 12"/></symbol>

<symbol id="line-chart" viewBox="0 0 24 24" fill="none" stroke="currentColor" stroke-width="2" stroke-linecap="round" stroke-linejoin="round"><polyline points="22 12 18 12 15 3 9 21 6 12 2 12"/></symbol>

<symbol id="pie-chart" viewBox="0 0 24 24" fill="none" stroke="currentColor" stroke-width="2" stroke-linecap="round" stroke-linejoin="round"><path d="M21.21 15.89A10 10 0 118 2.83"/><path d="M22 12A10 10 0 0012 2v10z"/></symbol>

<symbol id="calculator" viewBox="0 0 24 24" fill="none" stroke="currentColor" stroke-width="2" stroke-linecap="round" stroke-linejoin="round"><rect x="4" y="2" width="16" height="20" rx="2"/><line x1="8" y1="6" x2="16" y2="6"/><line x1="8" y1="10" x2="8" y2="10.01"/><line x1="12" y1="10" x2="12" y2="10.01"/><line x1="16" y1="10" x2="16" y2="10.01"/><line x1="8" y1="14" x2="8" y2="14.01"/><line x1="12" y1="14" x2="12" y2="14.01"/><line x1="16" y1="14" x2="16" y2="14.01"/><line x1="8" y1="18" x2="8" y2="18.01"/><line x1="12" y1="18" x2="16" y2="18"/></symbol>

<!-- CONFIGURAÇÕES -->
<symbol id="cog" viewBox="0 0 24 24" fill="none" stroke="currentColor" stroke-width="2" stroke-linecap="round" stroke-linejoin="round"><circle cx="12" cy="12" r="3"/><path d="M19.4 15a1.65 1.65 0 00.33 1.82l.06.06a2 2 0 010 2.83 2 2 0 01-2.83 0l-.06-.06a1.65 1.65 0 00-1.82-.33 1.65 1.65 0 00-1 1.51V21a2 2 0 01-2 2 2 2 0 01-2-2v-.09A1.65 1.65 0 009 19.4a1.65 1.65 0 00-1.82.33l-.06.06a2 2 0 01-2.83 0 2 2 0 010-2.83l.06-.06A1.65 1.65 0 004.68 15a1.65 1.65 0 00-1.51-1H3a2 2 0 01-2-2 2 2 0 012-2h.09A1.65 1.65 0 004.6 9a1.65 1.65 0 00-.33-1.82l-.06-.06a2 2 0 010-2.83 2 2 0 012.83 0l.06.06A1.65 1.65 0 009 4.68a1.65 1.65 0 001-1.51V3a2 2 0 012-2 2 2 0 012 2v.09a1.65 1.65 0 001 1.51 1.65 1.65 0 001.82-.33l.06-.06a2 2 0 012.83 0 2 2 0 010 2.83l-.06.06A1.65 1.65 0 0019.4 9a1.65 1.65 0 001.51 1H21a2 2 0 012 2 2 2 0 01-2 2h-.09a1.65 1.65 0 00-1.51 1z"/></symbol>

<symbol id="shield" viewBox="0 0 24 24" fill="none" stroke="currentColor" stroke-width="2" stroke-linecap="round" stroke-linejoin="round"><path d="M12 22s8-4 8-10V5l-8-3-8 3v7c0 6 8 10 8 10z"/></symbol>

<symbol id="shield-check" viewBox="0 0 24 24" fill="none" stroke="currentColor" stroke-width="2" stroke-linecap="round" stroke-linejoin="round"><path d="M12 22s8-4 8-10V5l-8-3-8 3v7c0 6 8 10 8 10z"/><polyline points="9 12 11 14 15 10"/></symbol>

<symbol id="database" viewBox="0 0 24 24" fill="none" stroke="currentColor" stroke-width="2" stroke-linecap="round" stroke-linejoin="round"><ellipse cx="12" cy="5" rx="9" ry="3"/><path d="M21 12c0 1.66-4 3-9 3s-9-1.34-9-3"/><path d="M3 5v14c0 1.66 4 3 9 3s9-1.34 9-3V5"/></symbol>

<symbol id="bug" viewBox="0 0 24 24" fill="none" stroke="currentColor" stroke-width="2" stroke-linecap="round" stroke-linejoin="round"><path d="M8 2h8"/><path d="M12 2v4"/><rect x="6" y="6" width="12" height="14" rx="4"/><path d="M6 12H2"/><path d="M22 12h-4"/><path d="M6 8H2"/><path d="M22 8h-4"/><path d="M6 16H2"/><path d="M22 16h-4"/></symbol>

<symbol id="layers" viewBox="0 0 24 24" fill="none" stroke="currentColor" stroke-width="2" stroke-linecap="round" stroke-linejoin="round"><polygon points="12 2 2 7 12 12 22 7 12 2"/><polyline points="2 17 12 22 22 17"/><polyline points="2 12 12 17 22 12"/></symbol>

<symbol id="box" viewBox="0 0 24 24" fill="none" stroke="currentColor" stroke-width="2" stroke-linecap="round" stroke-linejoin="round"><path d="M21 16V8a2 2 0 00-1-1.73l-7-4a2 2 0 00-2 0l-7 4A2 2 0 003 8v8a2 2 0 001 1.73l7 4a2 2 0 002 0l7-4A2 2 0 0021 16z"/><polyline points="3.27 6.96 12 12.01 20.73 6.96"/><line x1="12" y1="22.08" x2="12" y2="12"/></symbol>

<symbol id="extension" viewBox="0 0 24 24" fill="none" stroke="currentColor" stroke-width="2" stroke-linecap="round" stroke-linejoin="round"><path d="M4 9h4v12H4z"/><path d="M16 3h4v7h-4z"/><path d="M12 13h4v8h-4z"/><path d="M4 3h4v4H4z"/></symbol>

<symbol id="id-card" viewBox="0 0 24 24" fill="none" stroke="currentColor" stroke-width="2" stroke-linecap="round" stroke-linejoin="round"><rect x="2" y="5" width="20" height="14" rx="2"/><circle cx="8" cy="12" r="2"/><path d="M14 10h4"/><path d="M14 14h4"/><line x1="2" y1="18" x2="2" y2="18.01"/><line x1="22" y1="18" x2="22" y2="18.01"/></symbol>

<symbol id="list-ul" viewBox="0 0 24 24" fill="none" stroke="currentColor" stroke-width="2" stroke-linecap="round" stroke-linejoin="round"><line x1="8" y1="6" x2="21" y2="6"/><line x1="8" y1="12" x2="21" y2="12"/><line x1="8" y1="18" x2="21" y2="18"/><circle cx="4" cy="6" r="1" fill="currentColor"/><circle cx="4" cy="12" r="1" fill="currentColor"/><circle cx="4" cy="18" r="1" fill="currentColor"/></symbol>

<symbol id="book" viewBox="0 0 24 24" fill="none" stroke="currentColor" stroke-width="2" stroke-linecap="round" stroke-linejoin="round"><path d="M4 19.5A2.5 2.5 0 016.5 17H20"/><path d="M6.5 2H20v20H6.5A2.5 2.5 0 014 19.5v-15A2.5 2.5 0 016.5 2z"/></symbol>

<symbol id="book-open" viewBox="0 0 24 24" fill="none" stroke="currentColor" stroke-width="2" stroke-linecap="round" stroke-linejoin="round"><path d="M2 3h6a4 4 0 014 4v14a3 3 0 00-3-3H2z"/><path d="M22 3h-6a4 4 0 00-4 4v14a3 3 0 013-3h7z"/></symbol>

<symbol id="code-alt" viewBox="0 0 24 24" fill="none" stroke="currentColor" stroke-width="2" stroke-linecap="round" stroke-linejoin="round"><polyline points="16 18 22 12 16 6"/><polyline points="8 6 2 12 8 18"/></symbol>

<symbol id="webhook" viewBox="0 0 24 24" fill="none" stroke="currentColor" stroke-width="2" stroke-linecap="round" stroke-linejoin="round"><path d="M18 16.5a2.5 2.5 0 102.5-2.5"/><path d="M6 16.5a2.5 2.5 0 11-2.5-2.5"/><path d="M12 6.5a2.5 2.5 0 102.5 2.5"/><line x1="6" y1="14" x2="12" y2="9"/><line x1="18" y1="14" x2="12" y2="9"/></symbol>

<symbol id="bot" viewBox="0 0 24 24" fill="none" stroke="currentColor" stroke-width="2" stroke-linecap="round" stroke-linejoin="round"><rect x="3" y="11" width="18" height="10" rx="2"/><circle cx="12" cy="5" r="2"/><path d="M12 7v4"/><line x1="8" y1="16" x2="8" y2="16"/><line x1="16" y1="16" x2="16" y2="16"/></symbol>

<symbol id="envelope" viewBox="0 0 24 24" fill="none" stroke="currentColor" stroke-width="2" stroke-linecap="round" stroke-linejoin="round"><path d="M4 4h16c1.1 0 2 .9 2 2v12c0 1.1-.9 2-2 2H4c-1.1 0-2-.9-2-2V6c0-1.1.9-2 2-2z"/><polyline points="22 6 12 13 2 6"/></symbol>

<symbol id="message-square-dots" viewBox="0 0 24 24" fill="none" stroke="currentColor" stroke-width="2" stroke-linecap="round" stroke-linejoin="round"><path d="M21 15a2 2 0 01-2 2H7l-4 4V5a2 2 0 012-2h14a2 2 0 012 2z"/><circle cx="8" cy="10" r="1" fill="currentColor"/><circle cx="12" cy="10" r="1" fill="currentColor"/><circle cx="16" cy="10" r="1" fill="currentColor"/></symbol>

<symbol id="history" viewBox="0 0 24 24" fill="none" stroke="currentColor" stroke-width="2" stroke-linecap="round" stroke-linejoin="round"><circle cx="12" cy="12" r="10"/><polyline points="12 6 12 12 16 14"/></symbol>

<!-- TOPO / TOPBAR -->
<symbol id="sun" viewBox="0 0 24 24" fill="none" stroke="currentColor" stroke-width="2" stroke-linecap="round"><circle cx="12" cy="12" r="5"/><line x1="12" y1="1" x2="12" y2="3"/><line x1="12" y1="21" x2="12" y2="23"/><line x1="4.22" y1="4.22" x2="5.64" y2="5.64"/><line x1="18.36" y1="18.36" x2="19.78" y2="19.78"/><line x1="1" y1="12" x2="3" y2="12"/><line x1="21" y1="12" x2="23" y2="12"/><line x1="4.22" y1="19.78" x2="5.64" y2="18.36"/><line x1="18.36" y1="5.64" x2="19.78" y2="4.22"/></symbol>

<symbol id="moon" viewBox="0 0 24 24" fill="none" stroke="currentColor" stroke-width="2" stroke-linecap="round" stroke-linejoin="round"><path d="M21 12.79A9 9 0 1111.21 3 7 7 0 0021 12.79z"/></symbol>

<symbol id="bell" viewBox="0 0 24 24" fill="none" stroke="currentColor" stroke-width="2" stroke-linecap="round" stroke-linejoin="round"><path d="M18 8A6 6 0 006 8c0 7-3 9-3 9h18s-3-2-3-9"/><path d="M13.73 21a2 2 0 01-3.46 0"/></symbol>

<symbol id="cube-alt" viewBox="0 0 24 24" fill="none" stroke="currentColor" stroke-width="2" stroke-linecap="round" stroke-linejoin="round"><path d="M12 2L2 7l10 5 10-5-10-5z"/><path d="M2 17l10 5 10-5"/><path d="M2 12l10 5 10-5"/></symbol>

<symbol id="log-out" viewBox="0 0 24 24" fill="none" stroke="currentColor" stroke-width="2" stroke-linecap="round" stroke-linejoin="round"><path d="M9 21H5a2 2 0 01-2-2V5a2 2 0 012-2h4"/><polyline points="16 17 21 12 16 7"/><line x1="21" y1="12" x2="9" y2="12"/></symbol>

<symbol id="globe" viewBox="0 0 24 24" fill="none" stroke="currentColor" stroke-width="2" stroke-linecap="round" stroke-linejoin="round"><circle cx="12" cy="12" r="10"/><line x1="2" y1="12" x2="22" y2="12"/><path d="M12 2a15.3 15.3 0 014 10 15.3 15.3 0 01-4 10 15.3 15.3 0 01-4-10 15.3 15.3 0 014-10z"/></symbol>

<symbol id="slider-alt" viewBox="0 0 24 24" fill="none" stroke="currentColor" stroke-width="2" stroke-linecap="round" stroke-linejoin="round"><line x1="4" y1="21" x2="4" y2="14"/><line x1="4" y1="10" x2="4" y2="3"/><line x1="12" y1="21" x2="12" y2="12"/><line x1="12" y1="8" x2="12" y2="3"/><line x1="20" y1="21" x2="20" y2="16"/><line x1="20" y1="12" x2="20" y2="3"/><line x1="1" y1="14" x2="7" y2="14"/><line x1="9" y1="12" x2="15" y2="12"/><line x1="17" y1="16" x2="23" y2="16"/></symbol>

<!-- WHATSAPP -->
<symbol id="whatsapp" viewBox="0 0 24 24" fill="none" stroke="currentColor" stroke-width="2" stroke-linecap="round" stroke-linejoin="round"><path d="M3 21l1.65-3.8a9 9 0 113.4 3.4L3 21"/><path d="M9 10a.5.5 0 001 0V9a.5.5 0 00-1 0v1zm0 0a4.5 4.5 0 004.5 4.5h1a.5.5 0 000-1h-1A3.5 3.5 0 0110 10V9a.5.5 0 000 1v0z"/></symbol>

<symbol id="import" viewBox="0 0 24 24" fill="none" stroke="currentColor" stroke-width="2" stroke-linecap="round" stroke-linejoin="round"><path d="M21 15v4a2 2 0 01-2 2H5a2 2 0 01-2-2v-4"/><polyline points="7 10 12 15 17 10"/><line x1="12" y1="15" x2="12" y2="3"/></symbol>

<symbol id="barcode" viewBox="0 0 24 24" fill="none" stroke="currentColor" stroke-width="2" stroke-linecap="round" stroke-linejoin="round"><line x1="3" y1="4" x2="3" y2="20"/><line x1="7" y1="4" x2="7" y2="20"/><line x1="10" y1="4" x2="10" y2="20"/><line x1="14" y1="4" x2="14" y2="20"/><line x1="17" y1="4" x2="17" y2="20"/><line x1="21" y1="4" x2="21" y2="20"/></symbol>

<symbol id="time" viewBox="0 0 24 24" fill="none" stroke="currentColor" stroke-width="2" stroke-linecap="round" stroke-linejoin="round"><circle cx="12" cy="12" r="10"/><polyline points="12 6 12 12 16 14"/></symbol>

<symbol id="check-shield" viewBox="0 0 24 24" fill="none" stroke="currentColor" stroke-width="2" stroke-linecap="round" stroke-linejoin="round"><path d="M12 22s8-4 8-10V5l-8-3-8 3v7c0 6 8 10 8 10z"/><polyline points="9 12 11 14 15 10"/></symbol>

<symbol id="chart" viewBox="0 0 24 24" fill="none" stroke="currentColor" stroke-width="2" stroke-linecap="round" stroke-linejoin="round"><line x1="18" y1="20" x2="18" y2="10"/><line x1="12" y1="20" x2="12" y2="4"/><line x1="6" y1="20" x2="6" y2="14"/></symbol>

<!-- ÍCONES ADICIONAIS — Conteúdo das views -->
<symbol id="upload" viewBox="0 0 24 24" fill="none" stroke="currentColor" stroke-width="2" stroke-linecap="round" stroke-linejoin="round"><path d="M21 15v4a2 2 0 01-2 2H5a2 2 0 01-2-2v-4"/><polyline points="17 8 12 3 7 8"/><line x1="12" y1="3" x2="12" y2="15"/></symbol>

<symbol id="save" viewBox="0 0 24 24" fill="none" stroke="currentColor" stroke-width="2" stroke-linecap="round" stroke-linejoin="round"><path d="M19 21H5a2 2 0 01-2-2V5a2 2 0 012-2h11l5 5v11a2 2 0 01-2 2z"/><polyline points="17 21 17 13 7 13 7 21"/><polyline points="7 3 7 8 15 8"/></symbol>

<symbol id="mail" viewBox="0 0 24 24" fill="none" stroke="currentColor" stroke-width="2" stroke-linecap="round" stroke-linejoin="round"><path d="M4 4h16c1.1 0 2 .9 2 2v12c0 1.1-.9 2-2 2H4c-1.1 0-2-.9-2-2V6c0-1.1.9-2 2-2z"/><polyline points="22 6 12 13 2 6"/></symbol>

<symbol id="send" viewBox="0 0 24 24" fill="none" stroke="currentColor" stroke-width="2" stroke-linecap="round" stroke-linejoin="round"><line x1="22" y1="2" x2="11" y2="13"/><polygon points="22 2 15 22 11 13 2 9 22 2"/></symbol>

<symbol id="filter" viewBox="0 0 24 24" fill="none" stroke="currentColor" stroke-width="2" stroke-linecap="round" stroke-linejoin="round"><polygon points="22 3 2 3 10 12.46 10 19 14 21 14 12.46 22 3"/></symbol>

<symbol id="lock" viewBox="0 0 24 24" fill="none" stroke="currentColor" stroke-width="2" stroke-linecap="round" stroke-linejoin="round"><rect x="3" y="11" width="18" height="11" rx="2" ry="2"/><path d="M7 11V7a5 5 0 0110 0v4"/></symbol>

<symbol id="unlock" viewBox="0 0 24 24" fill="none" stroke="currentColor" stroke-width="2" stroke-linecap="round" stroke-linejoin="round"><rect x="3" y="11" width="18" height="11" rx="2" ry="2"/><path d="M7 11V7a5 5 0 019.9-1"/></symbol>

<symbol id="calendar" viewBox="0 0 24 24" fill="none" stroke="currentColor" stroke-width="2" stroke-linecap="round" stroke-linejoin="round"><rect x="3" y="4" width="18" height="18" rx="2" ry="2"/><line x1="16" y1="2" x2="16" y2="6"/><line x1="8" y1="2" x2="8" y2="6"/><line x1="3" y1="10" x2="21" y2="10"/></symbol>

<symbol id="alert-circle" viewBox="0 0 24 24" fill="none" stroke="currentColor" stroke-width="2" stroke-linecap="round" stroke-linejoin="round"><circle cx="12" cy="12" r="10"/><line x1="12" y1="8" x2="12" y2="12"/><line x1="12" y1="16" x2="12.01" y2="16"/></symbol>

<symbol id="info-circle" viewBox="0 0 24 24" fill="none" stroke="currentColor" stroke-width="2" stroke-linecap="round" stroke-linejoin="round"><circle cx="12" cy="12" r="10"/><line x1="12" y1="16" x2="12" y2="12"/><line x1="12" y1="8" x2="12.01" y2="8"/></symbol>

<symbol id="check-circle" viewBox="0 0 24 24" fill="none" stroke="currentColor" stroke-width="2" stroke-linecap="round" stroke-linejoin="round"><path d="M22 11.08V12a10 10 0 11-5.93-9.14"/><polyline points="22 4 12 14.01 9 11.01"/></symbol>

<symbol id="x-circle" viewBox="0 0 24 24" fill="none" stroke="currentColor" stroke-width="2" stroke-linecap="round" stroke-linejoin="round"><circle cx="12" cy="12" r="10"/><line x1="15" y1="9" x2="9" y2="15"/><line x1="9" y1="9" x2="15" y2="15"/></symbol>

<symbol id="map" viewBox="0 0 24 24" fill="none" stroke="currentColor" stroke-width="2" stroke-linecap="round" stroke-linejoin="round"><polygon points="1 6 1 22 8 18 16 22 23 18 23 2 16 6 8 2 1 6"/><line x1="8" y1="2" x2="8" y2="18"/><line x1="16" y1="6" x2="16" y2="22"/></symbol>

<symbol id="phone" viewBox="0 0 24 24" fill="none" stroke="currentColor" stroke-width="2" stroke-linecap="round" stroke-linejoin="round"><path d="M22 16.92v3a2 2 0 01-2.18 2 19.79 19.79 0 01-8.63-3.07 19.5 19.5 0 01-6-6 19.79 19.79 0 01-3.07-8.67A2 2 0 014.11 2h3a2 2 0 012 1.72 12.84 12.84 0 00.7 2.81 2 2 0 01-.45 2.11L8.09 9.91a16 16 0 006 6l1.27-1.27a2 2 0 012.11-.45 12.84 12.84 0 002.81.7A2 2 0 0122 16.92z"/></symbol>

<symbol id="link" viewBox="0 0 24 24" fill="none" stroke="currentColor" stroke-width="2" stroke-linecap="round" stroke-linejoin="round"><path d="M10 13a5 5 0 007.54.54l3-3a5 5 0 00-7.07-7.07l-1.72 1.71"/><path d="M14 11a5 5 0 00-7.54-.54l-3 3a5 5 0 007.07 7.07l1.71-1.71"/></symbol>

<symbol id="clipboard" viewBox="0 0 24 24" fill="none" stroke="currentColor" stroke-width="2" stroke-linecap="round" stroke-linejoin="round"><path d="M16 4h2a2 2 0 012 2v14a2 2 0 01-2 2H6a2 2 0 01-2-2V6a2 2 0 012-2h2"/><rect x="8" y="2" width="8" height="4" rx="1" ry="1"/></symbol>

<symbol id="settings" viewBox="0 0 24 24" fill="none" stroke="currentColor" stroke-width="2" stroke-linecap="round" stroke-linejoin="round"><circle cx="12" cy="12" r="3"/><path d="M19.4 15a1.65 1.65 0 00.33 1.82l.06.06a2 2 0 010 2.83 2 2 0 01-2.83 0l-.06-.06a1.65 1.65 0 00-1.82-.33 1.65 1.65 0 00-1 1.51V21a2 2 0 01-2 2 2 2 0 01-2-2v-.09A1.65 1.65 0 009 19.4a1.65 1.65 0 00-1.82.33l-.06.06a2 2 0 01-2.83 0 2 2 0 010-2.83l.06-.06A1.65 1.65 0 004.68 15a1.65 1.65 0 00-1.51-1H3a2 2 0 01-2-2 2 2 0 012-2h.09A1.65 1.65 0 004.6 9a1.65 1.65 0 00-.33-1.82l-.06-.06a2 2 0 010-2.83 2 2 0 012.83 0l.06.06A1.65 1.65 0 009 4.68a1.65 1.65 0 001-1.51V3a2 2 0 012-2 2 2 0 012 2v.09a1.65 1.65 0 001 1.51 1.65 1.65 0 001.82-.33l.06-.06a2 2 0 012.83 0 2 2 0 010 2.83l-.06.06A1.65 1.65 0 0019.4 9a1.65 1.65 0 001.51 1H21a2 2 0 012 2 2 2 0 01-2 2h-.09a1.65 1.65 0 00-1.51 1z"/></symbol>

<symbol id="home-alt" viewBox="0 0 24 24" fill="none" stroke="currentColor" stroke-width="2" stroke-linecap="round" stroke-linejoin="round"><path d="M3 9l9-7 9 7v11a2 2 0 01-2 2H5a2 2 0 01-2-2z"/><polyline points="9 22 9 12 15 12 15 22"/></symbol>

<symbol id="star" viewBox="0 0 24 24" fill="none" stroke="currentColor" stroke-width="2" stroke-linecap="round" stroke-linejoin="round"><polygon points="12 2 15.09 8.26 22 9.27 17 14.14 18.18 21.02 12 17.77 5.82 21.02 7 14.14 2 9.27 8.91 8.26 12 2"/></symbol>

<symbol id="tag" viewBox="0 0 24 24" fill="none" stroke="currentColor" stroke-width="2" stroke-linecap="round" stroke-linejoin="round"><path d="M20.59 13.41l-7.17 7.17a2 2 0 01-2.83 0L2 12V2h10l8.59 8.59a2 2 0 010 2.82z"/><line x1="7" y1="7" x2="7.01" y2="7"/></symbol>

<symbol id="folder" viewBox="0 0 24 24" fill="none" stroke="currentColor" stroke-width="2" stroke-linecap="round" stroke-linejoin="round"><path d="M22 19a2 2 0 01-2 2H4a2 2 0 01-2-2V5a2 2 0 012-2h5l2 3h9a2 2 0 012 2z"/></symbol>

<symbol id="image" viewBox="0 0 24 24" fill="none" stroke="currentColor" stroke-width="2" stroke-linecap="round" stroke-linejoin="round"><rect x="3" y="3" width="18" height="18" rx="2" ry="2"/><circle cx="8.5" cy="8.5" r="1.5"/><polyline points="21 15 16 10 5 21"/></symbol>

<symbol id="paperclip" viewBox="0 0 24 24" fill="none" stroke="currentColor" stroke-width="2" stroke-linecap="round" stroke-linejoin="round"><path d="M21.44 11.05l-9.19 9.19a6 6 0 01-8.49-8.49l9.19-9.19a4 4 0 015.66 5.66l-9.2 9.19a2 2 0 01-2.83-2.83l8.49-8.48"/></symbol>

<!-- ÍCONES EXTRAS — Dashboard e conteúdo -->
<symbol id="bolt" viewBox="0 0 24 24" fill="none" stroke="currentColor" stroke-width="2" stroke-linecap="round" stroke-linejoin="round"><polygon points="13 2 3 14 12 14 11 22 21 10 12 10 13 2"/></symbol>

<symbol id="error-circle" viewBox="0 0 24 24" fill="none" stroke="currentColor" stroke-width="2" stroke-linecap="round" stroke-linejoin="round"><circle cx="12" cy="12" r="10"/><line x1="12" y1="8" x2="12" y2="12"/><line x1="12" y1="16" x2="12.01" y2="16"/></symbol>

<symbol id="trending-up" viewBox="0 0 24 24" fill="none" stroke="currentColor" stroke-width="2" stroke-linecap="round" stroke-linejoin="round"><polyline points="23 6 13.5 15.5 8.5 10.5 1 18"/><polyline points="17 6 23 6 23 12"/></symbol>

<symbol id="wallet" viewBox="0 0 24 24" fill="none" stroke="currentColor" stroke-width="2" stroke-linecap="round" stroke-linejoin="round"><rect x="2" y="5" width="20" height="14" rx="2"/><path d="M2 10h20"/><circle cx="16" cy="15" r="1" fill="currentColor"/></symbol>

<symbol id="calendar-check" viewBox="0 0 24 24" fill="none" stroke="currentColor" stroke-width="2" stroke-linecap="round" stroke-linejoin="round"><rect x="3" y="4" width="18" height="18" rx="2" ry="2"/><line x1="16" y1="2" x2="16" y2="6"/><line x1="8" y1="2" x2="8" y2="6"/><line x1="3" y1="10" x2="21" y2="10"/><path d="M9 16l2 2 4-4"/></symbol>

<symbol id="inbox" viewBox="0 0 24 24" fill="none" stroke="currentColor" stroke-width="2" stroke-linecap="round" stroke-linejoin="round"><polyline points="22 12 16 12 14 15 10 15 8 12 2 12"/><path d="M5.45 5.11L2 12v6a2 2 0 002 2h16a2 2 0 002-2v-6l-3.45-6.89A2 2 0 0016.76 4H7.24a2 2 0 00-1.79 1.11z"/></symbol>

<symbol id="file-plus" viewBox="0 0 24 24" fill="none" stroke="currentColor" stroke-width="2" stroke-linecap="round" stroke-linejoin="round"><path d="M14 2H6a2 2 0 00-2 2v16a2 2 0 002 2h12a2 2 0 002-2V8z"/><polyline points="14 2 14 8 20 8"/><line x1="12" y1="18" x2="12" y2="12"/><line x1="9" y1="15" x2="15" y2="15"/></symbol>

<symbol id="check-circle" viewBox="0 0 24 24" fill="none" stroke="currentColor" stroke-width="2" stroke-linecap="round" stroke-linejoin="round"><path d="M22 11.08V12a10 10 0 11-5.93-9.14"/><polyline points="22 4 12 14.01 9 11.01"/></symbol>

<symbol id="pie-chart" viewBox="0 0 24 24" fill="none" stroke="currentColor" stroke-width="2" stroke-linecap="round" stroke-linejoin="round"><path d="M21.21 15.89A10 10 0 118 2.83"/><path d="M22 12A10 10 0 0012 2v10z"/></symbol>
</svg>